<svg version="1.2" xmlns="http://www.w3.org/2000/svg" viewBox="0 0 1350 1557" width="1350" height="1557">
	<title>hong-leong-bank-hlb-logo-vector-svg</title>
	<style>
		.s0 { fill: #001648 } 
		.s1 { fill: #ee3124 } 
	</style>
	<path id="Layer" class="s0" d="m1346.5 389.7v174.3c-62.9-6.2-124.3-17.2-185.6-32.9-146.3-37.7-280-103.7-399.5-194.8-92.8-70.7-174.6-154-242.3-248.2l154.2-88c132.1 177.5 317.7 304.7 534.8 362.9 47.1 12.5 92.8 20.4 139.9 26.7zm-261.1 432c-182.4-50.3-352.3-133.6-503.3-246.7-125.8-94.2-234.3-207.3-322.4-336.1l152.6-88c77 108.4 168.3 204.2 275.2 284.3 132.1 100.6 281.6 172.8 443.6 216.8 70.7 20.4 143.1 31.4 217 39.3v175.9c-88.1-7.8-174.6-22-262.7-45.5zm-932.7-520c96 144.5 217.1 268.6 355.5 373.9 163.6 124.1 347.6 213.6 545.8 267 97.5 25.2 195 42.4 295.7 48.7v176c-114.8-7.9-228.1-26.7-341.3-56.6-220.2-58.1-424.7-158.6-607.1-295.3-157.3-119.4-291-262.4-401.1-425.7z"/>
	<path id="Layer" class="s1" d="m0.1 1168.8c110.1-163.3 243.8-306.3 401.1-425.7 182.4-136.6 386.9-235.6 607.1-295.3 113.3-29.8 226.5-48.7 341.3-56.6v176c-100.6 6.3-198.2 23.6-295.7 48.7-198.2 51.8-382.2 142.9-545.8 265.5-138.4 105.2-259.5 229.3-355.4 373.8zm1347.9-477.5v175.9q-110.9 9.5-217 37.7c-162 44-311.5 116.3-443.6 216.8-106.9 80.1-198.2 176-275.2 284.4l-152.6-88c88.1-128.8 196.6-241.9 322.4-336.2 151-114.7 320.9-196.4 503.3-246.6 88.1-23.6 174.6-37.7 262.7-44zm0 476c-47.2 6.3-92.8 14.1-140 26.7-217 58.1-402.6 185.3-534.7 362.9l-154.2-88c67.6-94.3 149.4-177.5 242.2-248.2 119.6-91.1 253.3-157.1 399.5-194.8 61.4-15.7 122.7-26.7 185.6-33v174.4z"/>
</svg>